<svg width="21" height="20" viewBox="0 0 21 20" fill="none" xmlns="http://www.w3.org/2000/svg">
<path d="M5.5144 6.63416L9.6222 13.2066" stroke="#33363F" stroke-linecap="round"/>
<path d="M15.145 16.9036C16.3708 14.7804 17.0161 12.372 17.0161 9.92036C17.0161 7.46873 16.3708 5.06029 15.145 2.93711" stroke="#33363F" stroke-linecap="round"/>
<path d="M12.4092 14.8497C13.2744 13.351 13.73 11.6509 13.73 9.92036C13.73 8.18979 13.2744 6.48971 12.4092 4.991" stroke="#33363F" stroke-linecap="round"/>
<path d="M9.56306 13.2066C10.1399 12.2075 10.4436 11.0741 10.4436 9.92037C10.4436 8.76666 10.1399 7.63328 9.56306 6.63414" stroke="#33363F" stroke-linecap="round"/>
<path d="M5.57342 13.2066C4.99656 12.2075 4.69287 11.0741 4.69287 9.92037C4.69287 8.76666 4.99656 7.63328 5.57342 6.63414" stroke="#33363F" stroke-linecap="round"/>
</svg>
